<svg xmlns="http://www.w3.org/2000/svg" xmlns:xlink="http://www.w3.org/1999/xlink" viewBox="0 0 450.22 323.29"><defs><clipPath id="clip-path" transform="translate(0 -45.52)"><circle cx="241.5" cy="105.77" r="33.34" fill="none"/></clipPath></defs><g style="isolation:isolate"><g id="Layer_2" data-name="Layer 2"><g id="OBJECTS"><path d="M377.82,264.26l-52.42,41.4s-35.73-5.49-65.1,2.84-34,18.72-34,18.72,14-33.44,59.44-53.7S377.82,264.26,377.82,264.26Z" transform="translate(0 -45.52)" fill="#e5e3d1"/><path d="M226.29,327.22v-8.41C253,272.31,312.94,248.38,379,260.43l-1.18,3.83C314.24,252.66,251.94,282.52,226.29,327.22Z" transform="translate(0 -45.52)" fill="#fbfae6"/><path d="M74.77,264.26l52.42,41.4s35.73-5.49,65.1,2.84,34,18.72,34,18.72-14-33.44-59.44-53.7S74.77,264.26,74.77,264.26Z" transform="translate(0 -45.52)" fill="#e5e3d1"/><path d="M226.29,327.22v-8.41c-26.67-46.5-86.64-70.43-152.7-58.38l1.18,3.83C138.35,252.66,200.65,282.52,226.29,327.22Z" transform="translate(0 -45.52)" fill="#fbfae6"/><path d="M122.55,307.51C95.11,322,49.92,331.32,49.92,331.32v4h2.42C62,333.19,98.88,324.57,122.55,312c27.44-14.52,78.28-16.14,103.74,11.3v-4.53C200.83,291.37,150,293,122.55,307.51Z" transform="translate(0 -45.52)" fill="#fbfae6"/><path d="M122.55,312C98.88,324.57,62,333.19,52.34,335.33h174v-12C200.83,295.9,150,297.52,122.55,312Z" transform="translate(0 -45.52)" fill="#e5e3d1"/><polygon points="226.29 289.81 46.91 289.81 40.84 298.87 226.29 298.87 226.29 289.81" fill="#fbfae6"/><path d="M122.55,322c-27.44,8.06-72.63,13.2-72.63,13.2v2.23h2.42c9.68-1.19,46.54-6,70.21-12.92,27.44-8.06,78.28-9,103.74,6.27v-2.52C200.83,313,150,313.93,122.55,322Z" transform="translate(0 -45.52)" fill="#fbfae6"/><path d="M122.55,315.08c-27.44,9.26-72.63,15.18-72.63,15.18v2.56h2.42C62,331.46,98.88,326,122.55,318c27.44-9.26,78.28-10.29,103.74,7.21v-2.89C200.83,304.78,150,305.81,122.55,315.08Z" transform="translate(0 -45.52)" fill="#fbfae6"/><path d="M376.78,295.72l-58.21,33.82s-29.11-14.77-57.07-12.49-35.21,12.81-35.21,12.81,22.58-34.15,68.12-45.94S376.78,295.72,376.78,295.72Z" transform="translate(0 -45.52)" fill="#e5e3d1"/><path d="M226.29,329.86l2.64-9.44c37.59-45.75,96.84-58.16,150.07-28.72l-2.22,4C325.55,267.38,262.43,285.87,226.29,329.86Z" transform="translate(0 -45.52)" fill="#fbfae6"/><path d="M330,316.57c15.37,8.14,36.3,14.62,51.74,18.76h18.47c-9.68-2.14-46.54-10.76-70.21-23.29-27.44-14.52-78.28-16.14-103.75,11.3v4.53C251.76,300.43,302.6,302,330,316.57Z" transform="translate(0 -45.52)" fill="#fbfae6"/><path d="M330,316.57c-27.44-14.53-78.28-16.14-103.75,11.3v7.46H381.78C366.34,331.19,345.41,324.71,330,316.57Z" transform="translate(0 -45.52)" fill="#e5e3d1"/><polygon points="405.68 289.81 226.29 289.81 226.29 298.87 411.74 298.87 405.68 289.81" fill="#fbfae6"/><circle cx="226.29" cy="300.38" r="18.68" fill="#293060"/><path d="M250.12,344.38s-13.94,12.48-23.85,12.48-23.8-12.48-23.8-12.48h-166v12h166v0a29,29,0,0,0,47.65-.06v.1h166v-12Z" transform="translate(0 -45.52)" fill="#2b6777"/><path d="M207.5,348.41a21.12,21.12,0,0,1-.14-2.27,18.94,18.94,0,1,1,37.72,2.27c2.94-2.17,4.91-3.91,5-4a23.87,23.87,0,0,0-47.62,0C202.6,344.5,204.56,346.25,207.5,348.41Z" transform="translate(0 -45.52)" fill="#fc0"/><path d="M226.29,318.81h0v3.44h0v-3.44C252.65,272.88,311.48,249,376.58,260A158.17,158.17,0,1,0,76,260C141.1,249,199.94,272.88,226.29,318.81Z" transform="translate(0 -45.52)" fill="#2b6777"/><polygon points="115.49 99.79 118.89 105.67 125.67 105.67 122.28 111.55 125.67 117.42 118.89 117.42 115.49 123.3 112.1 117.42 105.31 117.42 108.71 111.55 105.31 105.67 112.1 105.67 115.49 99.79" fill="#fc0"/><polygon points="342.23 155.13 344.76 159.53 349.84 159.53 347.3 163.93 349.84 168.32 344.76 168.32 342.23 172.72 339.69 168.32 334.61 168.32 337.15 163.93 334.61 159.53 339.69 159.53 342.23 155.13" fill="#fc0"/><polygon points="310.26 56.02 311.48 58.14 313.93 58.14 312.7 60.25 313.93 62.37 311.48 62.37 310.26 64.48 309.04 62.37 306.59 62.37 307.82 60.25 306.59 58.14 309.04 58.14 310.26 56.02" fill="#fc0"/><polygon points="179.18 31.26 181.16 34.69 185.12 34.69 183.14 38.11 185.12 41.54 181.16 41.54 179.18 44.97 177.21 41.54 173.25 41.54 175.23 38.11 173.25 34.69 177.21 34.69 179.18 31.26" fill="#fc0"/><polygon points="198.47 213.3 199.68 215.4 202.11 215.4 200.9 217.51 202.11 219.61 199.68 219.61 198.47 221.72 197.25 219.61 194.82 219.61 196.03 217.51 194.82 215.4 197.25 215.4 198.47 213.3" fill="#fc0"/><polygon points="133.57 175.63 135.03 178.15 137.95 178.15 136.49 180.68 137.95 183.21 135.03 183.21 133.57 185.74 132.11 183.21 129.19 183.21 130.65 180.68 129.19 178.15 132.11 178.15 133.57 175.63" fill="#fc0"/><circle cx="241.5" cy="60.25" r="33.34" fill="#b6d8db"/><g clip-path="url(#clip-path)"><circle cx="228.2" cy="40.1" r="6.74" fill="#99bbbc"/><path d="M222.46,86.62a6.74,6.74,0,0,1,11-5.24A6.74,6.74,0,1,0,224,90.86,6.7,6.7,0,0,1,222.46,86.62Z" transform="translate(0 -45.52)" fill="#99bbbc" opacity="0.44" style="mix-blend-mode:multiply"/><path d="M254.68,86.73A5.64,5.64,0,1,1,249,81.1,5.64,5.64,0,0,1,254.68,86.73Z" transform="translate(0 -45.52)" fill="#99bbbc"/><path d="M244.25,87.57a5.62,5.62,0,0,1,9.17-4.38,5.63,5.63,0,1,0-7.92,7.92A5.63,5.63,0,0,1,244.25,87.57Z" transform="translate(0 -45.52)" fill="#99bbbc" opacity="0.44" style="mix-blend-mode:multiply"/><path d="M240.23,105.94a4.12,4.12,0,1,1-4.12-4.12A4.11,4.11,0,0,1,240.23,105.94Z" transform="translate(0 -45.52)" fill="#99bbbc"/><path d="M232.6,106.55a4.12,4.12,0,0,1,6.71-3.2,4.12,4.12,0,1,0-5.79,5.8A4.14,4.14,0,0,1,232.6,106.55Z" transform="translate(0 -45.52)" fill="#99bbbc" opacity="0.44" style="mix-blend-mode:multiply"/><circle cx="234.94" cy="94.82" r="6.96" fill="#99bbbc"/><path d="M229,141.37A7,7,0,0,1,240.35,136a7,7,0,1,0-9.78,9.79A6.94,6.94,0,0,1,229,141.37Z" transform="translate(0 -45.52)" fill="#99bbbc" opacity="0.44" style="mix-blend-mode:multiply"/><circle cx="218.1" cy="121.11" r="8.2" transform="translate(64.26 271.98) rotate(-80.97)" fill="#99bbbc"/><path d="M211.12,122.33A8.19,8.19,0,0,1,224.47,116,8.19,8.19,0,1,0,213,127.48,8.17,8.17,0,0,1,211.12,122.33Z" transform="translate(0 -45.52)" fill="#99bbbc" opacity="0.44" style="mix-blend-mode:multiply"/><path d="M272.25,99.05A5.25,5.25,0,1,1,267,93.8,5.25,5.25,0,0,1,272.25,99.05Z" transform="translate(0 -45.52)" fill="#99bbbc"/><path d="M262.53,99.83a5.25,5.25,0,0,1,8.55-4.08,5.25,5.25,0,1,0-7.38,7.38A5.2,5.2,0,0,1,262.53,99.83Z" transform="translate(0 -45.52)" fill="#99bbbc" opacity="0.44" style="mix-blend-mode:multiply"/><circle cx="259.07" cy="79.08" r="13.98" fill="#99bbbc"/><path d="M247.17,126.67a14,14,0,0,1,22.77-10.86,14,14,0,1,0-19.66,19.65A13.92,13.92,0,0,1,247.17,126.67Z" transform="translate(0 -45.52)" fill="#99bbbc" opacity="0.44" style="mix-blend-mode:multiply"/></g><circle cx="175.16" cy="117.02" r="14.78" fill="#f69"/><path d="M188.3,169.3c-.1.19-.22.37-.32.56.62,1.85.61,3.31-.18,4.1s-2,.78-3.67.3c-3.25-.94-7.87-4-12.28-8.42s-7.47-9-8.42-12.27c-.48-1.65-.42-2.95.3-3.68s2.25-.79,4.1-.17c.19-.11.37-.22.57-.32-2.81-1.09-5.1-1.16-6.32.06s-1.15,3.51-.06,6.31a41.69,41.69,0,0,0,19.9,19.9c2.8,1.09,5.1,1.16,6.31-.06S189.38,172.1,188.3,169.3Z" transform="translate(0 -45.52)" fill="#ffd7e6"/><circle cx="296.73" cy="172.36" r="9.34" fill="#6ff"/><path d="M301,209.57l.36.2c1.17-.39,2.09-.39,2.59.11s.49,1.28.19,2.33c-.6,2-2.54,5-5.33,7.75s-5.7,4.73-7.75,5.33c-1,.3-1.87.27-2.33-.19s-.5-1.42-.11-2.59c-.06-.12-.14-.24-.2-.36-.69,1.77-.73,3.22,0,4s2.22.73,4,0A26.21,26.21,0,0,0,305,213.6c.69-1.77.73-3.22,0-4S302.77,208.88,301,209.57Z" transform="translate(0 -45.52)" fill="#2b7270"/><circle cx="272.39" cy="131.29" r="2.24" fill="#fff"/><circle cx="360.92" cy="127.37" r="1.68" fill="#fff"/><circle cx="141.3" cy="151.74" r="1.68" fill="#fff"/><circle cx="92.58" cy="187.67" r="1.93" fill="#fff"/><path d="M125.67,116.86a2.29,2.29,0,1,1-2.29-2.3A2.29,2.29,0,0,1,125.67,116.86Z" transform="translate(0 -45.52)" fill="#fff"/><path d="M291.91,85a1.33,1.33,0,1,1-1.33-1.33A1.32,1.32,0,0,1,291.91,85Z" transform="translate(0 -45.52)" fill="#fff"/><path d="M294.57,133.65a2.66,2.66,0,1,1-2.66-2.66A2.66,2.66,0,0,1,294.57,133.65Z" transform="translate(0 -45.52)" fill="#fff"/><path d="M175.16,116.86a2.12,2.12,0,1,1-2.12-2.12A2.12,2.12,0,0,1,175.16,116.86Z" transform="translate(0 -45.52)" fill="#fff"/><path d="M170.93,250.14a1.24,1.24,0,1,1-1.24-1.24A1.24,1.24,0,0,1,170.93,250.14Z" transform="translate(0 -45.52)" fill="#fff"/><path d="M180.74,217.88a1.24,1.24,0,1,1-1.24-1.24A1.23,1.23,0,0,1,180.74,217.88Z" transform="translate(0 -45.52)" fill="#fff"/><path d="M229.08,290.89a1.4,1.4,0,0,1-2.79,0,1.4,1.4,0,1,1,2.79,0Z" transform="translate(0 -45.52)" fill="#fff"/><circle cx="107.51" cy="138.38" r="1.11" fill="#fff"/><circle cx="331.1" cy="90.02" r="1.89" fill="#fff"/><circle cx="360.92" cy="198.93" r="1.68" fill="#fff"/><circle cx="276.51" cy="205.86" r="1.68" fill="#fff"/><circle cx="202.48" cy="91.91" r="1.68" fill="#fff"/><path d="M217.83,217.88c-14.43,0-17.27,31.56-17.27,31.56l17.27-20.84Z" transform="translate(0 -45.52)" fill="#e4a02d"/><path d="M237.54,217.88c14.43,0,17.27,31.56,17.27,31.56L237.54,228.6Z" transform="translate(0 -45.52)" fill="#e4a02d"/><path d="M227.69,162.31C200.78,190.07,217,235.55,217,235.55h21.45S254.59,190.07,227.69,162.31Z" transform="translate(0 -45.52)" fill="#fff"/><path d="M227.69,180.89a37.53,37.53,0,0,0,10.94-1.6,51.85,51.85,0,0,0-10.94-17,52,52,0,0,0-10.95,17A37.55,37.55,0,0,0,227.69,180.89Z" transform="translate(0 -45.52)" fill="#e06f37"/><circle cx="227.69" cy="197.95" r="8.19" transform="translate(-73.28 173.46) rotate(-45)" fill="#ba0c0c"/><path d="M234.24,198a6.55,6.55,0,1,1-6.55-6.55A6.55,6.55,0,0,1,234.24,198Z" transform="translate(0 -45.52)" fill="#4a5272"/><path d="M221.8,199.59A6.55,6.55,0,0,1,234,196.34a6.55,6.55,0,0,0-12.9,1.61,6.48,6.48,0,0,0,.86,3.24A6.49,6.49,0,0,1,221.8,199.59Z" transform="translate(0 -45.52)" fill="#4a5272" style="mix-blend-mode:multiply"/><path d="M239,236.48H216.39a.93.93,0,0,1-.93-.93h0a.93.93,0,0,1,.93-.93H239a.94.94,0,0,1,.94.93h0A.94.94,0,0,1,239,236.48Z" transform="translate(0 -45.52)" fill="#e06f37"/><path d="M223.74,236.48c-6.71,12.79,1.85,24.11,1.85,24.11s4.77-5.34,4.77-12a29.3,29.3,0,0,0-2.73-12.06Z" transform="translate(0 -45.52)" fill="#ffc33e"/><path d="M220.12,236.48a49.48,49.48,0,0,0-5.91,24.11s12.53-5.34,12.53-12A29.3,29.3,0,0,0,224,236.48Z" transform="translate(0 -45.52)" fill="#ffc33e"/><path d="M231.63,236.48c6.71,12.79-1.85,24.11-1.85,24.11s-4.76-5.34-4.76-12a29.39,29.39,0,0,1,2.72-12.06Z" transform="translate(0 -45.52)" fill="#ffc33e"/><path d="M235.25,236.48a49.48,49.48,0,0,1,5.91,24.11s-12.52-5.34-12.52-12a29.39,29.39,0,0,1,2.72-12.06Z" transform="translate(0 -45.52)" fill="#ffc33e"/><circle cx="314.11" cy="174.17" r="17.24" transform="translate(-44.75 113.75) rotate(-26.63)" fill="#a0c7ea"/><path d="M322.7,159.24c-4.81,2.07-12,3.38-8.34,4.53,6.41,2-9,12.92-1,12.76,5-.1,5.66,8.64,6.92,13.72a17.22,17.22,0,0,0,2.42-31Z" transform="translate(0 -45.52)" fill="#b2daf7"/><path d="M308.32,165c-2.84,0-4.24-1.82-5-4.25a17.21,17.21,0,0,0-3,23.79C301.21,173.39,317,164.83,308.32,165Z" transform="translate(0 -45.52)" fill="#85bbdd"/><path d="M317.53,188.73c-3.89.56-3.73-10.45-6.28-7.27s-10.58-.91-9.1,4.95a1.13,1.13,0,0,1,0,.18,17.08,17.08,0,0,0,16,4.31C318.86,189.56,319.25,188.48,317.53,188.73Z" transform="translate(0 -45.52)" fill="#85bbdd"/><path d="M331.34,174.13c0,.25,0,.5,0,.75,1.64,1.59,2.41,3.1,2,4.34s-1.68,1.9-3.64,2.29c-3.87.76-10.3.06-17.23-2.15s-12.59-5.33-15.31-8.18c-1.38-1.45-2-2.83-1.66-4s1.9-2,4.15-2.38c.14-.21.27-.43.42-.64-3.49.38-5.9,1.54-6.51,3.46s.69,4.25,3.32,6.57c3.25,2.86,8.51,5.7,14.78,7.69s12.21,2.71,16.51,2.24c3.49-.38,5.9-1.54,6.5-3.45S334,176.45,331.34,174.13Z" transform="translate(0 -45.52)" fill="#e5dfe2"/><path d="M331.22,172.06c0,.24.09.58.08.82,1.58,1.53,2.4,3,2,4.23s-1.63,1.84-3.53,2.21c-3.74.74-10,.06-16.66-2.07s-12.18-5.16-14.81-7.92c-1.33-1.4-1.95-2.73-1.6-3.84s1.95-2,4.12-2.33c.14-.2.41-.43.55-.63-3.37.37-6,1.53-6.55,3.38s.67,4.12,3.21,6.36c3.14,2.77,8.24,5.51,14.3,7.44s11.81,2.62,16,2.17c3.37-.37,5.7-1.49,6.29-3.34S333.76,174.3,331.22,172.06Z" transform="translate(0 -45.52)" fill="#fffdfe"/><path d="M92.58,204.53a6.48,6.48,0,0,0-10.51-4.65,8.8,8.8,0,0,0-13.19-4.56,12.67,12.67,0,0,0-16.53-3.71A12.08,12.08,0,0,0,31,195.11a8.8,8.8,0,0,0-12.79,4.6A6.49,6.49,0,0,0,8,204.53Z" transform="translate(0 -45.52)" fill="#fff"/><path d="M450.22,59.43a5,5,0,0,0-8.17-3.61,6.84,6.84,0,0,0-10.24-3.55A9.85,9.85,0,0,0,419,49.39a9.38,9.38,0,0,0-16.55,2.73,6.83,6.83,0,0,0-9.94,3.57,5,5,0,0,0-8,3.74Z" transform="translate(0 -45.52)" fill="#fff"/><path d="M448.58,228.07a6.52,6.52,0,0,0-6.49-6.08,6.44,6.44,0,0,0-4,1.43,8.83,8.83,0,0,0-8.36-6,8.72,8.72,0,0,0-4.83,1.45,12.69,12.69,0,0,0-16.54-3.71,12.07,12.07,0,0,0-21.3,3.5,8.8,8.8,0,0,0-12.79,4.6,6.47,6.47,0,0,0-10.3,4.82Z" transform="translate(0 -45.52)" fill="#fff"/><path d="M111.31,137.23A4.52,4.52,0,0,0,104,134a6.15,6.15,0,0,0-9.19-3.18,8.84,8.84,0,0,0-11.52-2.58,8.4,8.4,0,0,0-14.84,2.44,6.14,6.14,0,0,0-8.91,3.2,4.52,4.52,0,0,0-7.18,3.36Z" transform="translate(0 -45.52)" fill="#fff"/><path d="M406.26,154.8a4.51,4.51,0,0,0-7.32-3.24,6.15,6.15,0,0,0-9.19-3.18,8.84,8.84,0,0,0-11.52-2.58,8.4,8.4,0,0,0-14.84,2.44,6.15,6.15,0,0,0-8.92,3.2,4.52,4.52,0,0,0-7.18,3.36Z" transform="translate(0 -45.52)" fill="#fff"/><path d="M59,58.72a4.52,4.52,0,0,0-7.33-3.25,6.13,6.13,0,0,0-5.82-4.18,6,6,0,0,0-3.36,1,8.84,8.84,0,0,0-7.2-3.72,8.75,8.75,0,0,0-4.32,1.13,8.42,8.42,0,0,0-14.85,2.44,6.14,6.14,0,0,0-8.91,3.2A4.52,4.52,0,0,0,0,58.72Z" transform="translate(0 -45.52)" fill="#fff"/></g></g></g></svg>